#!OML:ASF E:\acrobat2\Project_11_07_03\Capture day 1\Session 1\Acrobat.ASF
:FULLY-SPECIFIED
:DEGREES
1853
root 11.1529 4.15172 10.6304 -82.5439 2.91446 168.791
lowerback -14.272019714929035 -5.7553898781074935 -3.8315404908951023
upperback -6.511504670853922 -8.382815370905456 9.676674988337359
thorax -1.303115614812014 -5.767543574944829 10.090052212799412
lowerneck -2.5538841906233456 -18.203630343090957 13.993933621928441
upperneck -31.328662482542764 -22.707275712656376 -0.14896842860705772
head -11.577428492544728 -8.369148259209348 -1.6902177627988615
rclavicle 2.38542e-15 -1.58034e-14
rhumerus -20.247265208148985 -24.979968132584847 30.428973541213473
rradius 61.979543884242425
rwrist -28.35680136348562
rhand -25.1352602049467 -36.25667228567129
rfingers 7.56295116910818
rthumb 5.407002718648748 -69.26064015119489
lclavicle 2.38542e-15 -1.58034e-14
lhumerus -26.39746762704045 44.43296276981577 -54.17631371975966
lradius 24.675945622823882
lwrist 29.02243645763423
lhand -16.590842613389523 -30.862392128287784
lfingers 8.046563766377087
lthumb 10.018521189102941 -2.595692119931966
rfemur 2.1196131056243606 3.0465276111943362 2.8257135981886523
rtibia 45.35311309669653
rfoot 10.07525525903559 -19.430736715480982
rtoes 30.1117007082012
lfemur -12.206390063541088 -13.316913729004517 -1.9163865318057405
ltibia 44.344382056344614
lfoot 41.08365937026719 12.954457189480616
ltoes 4.47688
1854
root 11.1529 4.15172 10.6304 -82.5439 2.91446 168.791
lowerback -14.302840339634747 -5.706405021387047 -3.931480021383949
upperback -6.497841755858843 -8.372224190010023 9.632187326950389
thorax -1.3948123748685861 -5.817675456928634 10.135653244567301
lowerneck -2.486009400043876 -18.208733071513837 13.994704939588201
upperneck -31.358267676037144 -22.699468533506657 -0.06955664006456641
head -11.499060217595034 -8.280967052070077 -1.6445645463324425
rclavicle 2.38542e-15 -1.58034e-14
rhumerus -21.949804218057796 -26.084864752099538 26.267194817948898
rradius 61.31304476601684
rwrist -28.256890519881175
rhand -25.172187144097116 -36.19897948734922
rfingers 7.5520383089992364
rthumb 5.414676746446941 -69.2597998371661
lclavicle 2.38542e-15 -1.58034e-14
lhumerus -27.734219652188315 40.52819803028892 -54.92154888886585
lradius 23.87190529222199
lwrist 29.063408708051384
lhand -16.507096251395712 -30.95543653834036
lfingers 8.113780207057323
lthumb 10.030356809328413 -2.611165369878017
rfemur 1.86903948738978 2.8527298803402155 2.3512457779444613
rtibia 45.50262131174112
rfoot 10.419900708488006 -19.56760378791742
rtoes 30.53073646324413
lfemur -12.133168727352386 -13.260946506113951 -2.274472284822537
ltibia 48.32623319871246
lfoot 41.15410593554621 13.298954740971967
ltoes 4.47688
1855
root 11.1529 4.15172 10.6304 -82.5439 2.91446 168.791
lowerback -14.342906085746217 -5.651236493540548 -3.9330834119512406
upperback -6.501273104398039 -8.375692434249896 9.585858386316152
thorax -1.4555939215893405 -5.791002267277667 10.184774582353693
lowerneck -2.566875751412011 -18.26114766390304 14.089167434384581
upperneck -31.34895175113518 -22.61487542603228 -0.09173090271906958
head -11.514007405656544 -8.313546151659812 -1.6541170613287932
rclavicle 2.38542e-15 -1.58034e-14
rhumerus -22.478576874134184 -21.633557300803048 30.338391507963774
rradius 62.132528515890336
rwrist -28.22213063648423
rhand -25.211529116211654 -36.28747257365818
rfingers 7.549960379612639
rthumb 5.332951424105131 -69.23977856822908
lclavicle 2.38542e-15 -1.58034e-14
lhumerus -27.196813033778763 40.99518255277057 -57.49073790266822
lradius 22.16008522960513
lwrist 29.12119568376508
lhand -16.508167089169753 -31.025513978994937
lfingers 8.205268341214042
lthumb 10.107685904452715 -2.645995085934541
rfemur 1.9053343040696498 2.470453328367017 2.50540561127256
rtibia 41.615232113334876
rfoot 10.62473812253984 -19.905933794454118
rtoes 30.48704951660688
lfemur -12.595219248798221 -13.037175881236662 -2.302952929350502
ltibia 45.87288203982109
lfoot 41.0674653838894 13.539565869555744
ltoes 4.47688
1856
root 11.1529 4.15172 10.6304 -82.5439 2.91446 168.791
lowerback -14.401099716836189 -5.673998904527793 -3.971311509452659
upperback -6.436646600246939 -8.285349094235421 9.534056590739736
thorax -1.5207524214946286 -5.786926642790168 10.19152057093835
lowerneck -2.534388386329625 -18.204500761208195 14.090057249726378
upperneck -31.41439268957364 -22.661766394432448 -0.14486063293544194
head -11.490577049421562 -8.29952456687429 -1.6774830363875533
rclavicle 2.38542e-15 -1.58034e-14
rhumerus -23.38279721394185 -18.658298944564862 34.27424114756377
rradius 61.80356766251585
rwrist -28.26795502744343
rhand -25.2353236886392 -36.359803678853055
rfingers 7.541608270280575
rthumb 5.23416206380011 -69.2643880809875
lclavicle 2.38542e-15 -1.58034e-14
lhumerus -29.591058195376846 41.971371614118766 -56.67951922992059
lradius 24.068671532545665
lwrist 29.170482362343165
lhand -16.487152341997074 -31.069898798767028
lfingers 8.18835138225613
lthumb 10.037213675010866 -2.607394695294433
rfemur 1.8652370603972486 2.3990302511078996 2.1362527685914117
rtibia 45.20696821605406
rfoot 11.07083130808986 -19.944793951047586
rtoes 30.637839676042613
lfemur -12.176475063547256 -13.370829423388862 -2.0173747585401416
ltibia 43.80333569255057
lfoot 41.10043194103578 13.743553299765397
ltoes 4.47688
1857
root 11.1529 4.15172 10.6304 -82.5439 2.91446 168.791
lowerback -14.308105595746271 -5.757456981032796 -4.034936274541058
upperback -6.485723040235755 -8.251228844753943 9.51646319047635
thorax -1.5379626574514091 -5.799516733693665 10.11715913371663
lowerneck -2.589078589987014 -18.16056218480516 14.058988924209581
upperneck -31.471230709350685 -22.589713577788633 -0.20138907663239625
head -11.545045866262859 -8.286645820495963 -1.7413792130104375
rclavicle 2.38542e-15 -1.58034e-14
rhumerus -21.369325725449535 -18.05570684485012 31.438825618245488
rradius 60.13854839577203
rwrist -28.27802107948365
rhand -25.22430817639977 -36.444662077695895
rfingers 7.4853785234293975
rthumb 5.18964847436132 -69.35655987047522
lclavicle 2.38542e-15 -1.58034e-14
lhumerus -29.18426839715109 37.299294473866 -53.51312802650341
lradius 24.96054514659768
lwrist 29.1701605756219
lhand -16.461382849292146 -31.07931222611805
lfingers 8.129635131672105
lthumb 10.090740884279288 -2.5782838056976005
rfemur 1.764988310596189 2.6396266576861738 1.8578283620478868
rtibia 44.9598585744776
rfoot 10.612118412430663 -19.818342536108492
rtoes 30.466021104201822
lfemur -11.730077197328587 -13.85073699562544 -1.6211580753740902
ltibia 45.67556998017589
lfoot 40.96211645615821 14.116763556354664
ltoes 4.47688
1858
root 11.1529 4.15172 10.6304 -82.5439 2.91446 168.791
lowerback -14.381081096958203 -5.694659105165611 -3.9368737790989003
upperback -6.568276787874335 -8.288062147780602 9.418366891675984
thorax -1.4694334196524204 -5.729215449677701 10.059207987977329
lowerneck -2.5253690966145026 -18.08007169452567 14.03082119002872
upperneck -31.531156536098806 -22.560497246891913 -0.22005306917705786
head -11.469398579899464 -8.364799509842738 -1.691693272526493
rclavicle 2.38542e-15 -1.58034e-14
rhumerus -21.27215410572157 -20.64267455655795 32.25048789561495
rradius 63.07211295008628
rwrist -28.214691345147372
rhand -25.265611262341054 -36.3870817575519
rfingers 7.428366377410971
rthumb 5.235180998325034 -69.29697572828246
lclavicle 2.38542e-15 -1.58034e-14
lhumerus -31.070105017127688 39.70430484510379 -53.032664382073676
lradius 25.064828443559335
lwrist 29.19249660143633
lhand -16.39239258885517 -30.996027088284322
lfingers 8.142764956599033
lthumb 10.048558606685926 -2.607178336930727
rfemur 1.550117426259598 2.241641015240512 2.081131997726398
rtibia 40.57480174658419
rfoot 10.554958621864657 -20.085151255601062
rtoes 30.16828363483086
lfemur -11.796647320873136 -13.440215504711556 -1.5717326702206165
ltibia 48.58145114517873
lfoot 41.252553595485395 14.480827793664071
ltoes 4.47688
